<svg width="132" height="40" viewBox="0 0 132 40" fill="none" xmlns="http://www.w3.org/2000/svg">
<path d="M11.2344 7.25V30H6.54688V7.25H11.2344ZM20.2969 16.9688V20.625H9.95312V16.9688H20.2969ZM21.3906 7.25V10.9219H9.95312V7.25H21.3906ZM22.7656 21.7188V21.3906C22.7656 20.151 22.9427 19.0104 23.2969 17.9688C23.651 16.9167 24.1667 16.0052 24.8438 15.2344C25.5208 14.4635 26.3542 13.8646 27.3438 13.4375C28.3333 13 29.4688 12.7812 30.75 12.7812C32.0312 12.7812 33.1719 13 34.1719 13.4375C35.1719 13.8646 36.0104 14.4635 36.6875 15.2344C37.375 16.0052 37.8958 16.9167 38.25 17.9688C38.6042 19.0104 38.7812 20.151 38.7812 21.3906V21.7188C38.7812 22.9479 38.6042 24.0885 38.25 25.1406C37.8958 26.1823 37.375 27.0938 36.6875 27.875C36.0104 28.6458 35.1771 29.2448 34.1875 29.6719C33.1979 30.099 32.0625 30.3125 30.7812 30.3125C29.5 30.3125 28.3594 30.099 27.3594 29.6719C26.3698 29.2448 25.5312 28.6458 24.8438 27.875C24.1667 27.0938 23.651 26.1823 23.2969 25.1406C22.9427 24.0885 22.7656 22.9479 22.7656 21.7188ZM27.2656 21.3906V21.7188C27.2656 22.4271 27.3281 23.0885 27.4531 23.7031C27.5781 24.3177 27.776 24.8594 28.0469 25.3281C28.3281 25.7865 28.6927 26.1458 29.1406 26.4062C29.5885 26.6667 30.1354 26.7969 30.7812 26.7969C31.4062 26.7969 31.9427 26.6667 32.3906 26.4062C32.8385 26.1458 33.1979 25.7865 33.4688 25.3281C33.7396 24.8594 33.9375 24.3177 34.0625 23.7031C34.1979 23.0885 34.2656 22.4271 34.2656 21.7188V21.3906C34.2656 20.7031 34.1979 20.0573 34.0625 19.4531C33.9375 18.8385 33.7344 18.2969 33.4531 17.8281C33.1823 17.349 32.8229 16.974 32.375 16.7031C31.9271 16.4323 31.3854 16.2969 30.75 16.2969C30.1146 16.2969 29.5729 16.4323 29.125 16.7031C28.6875 16.974 28.3281 17.349 28.0469 17.8281C27.776 18.2969 27.5781 18.8385 27.4531 19.4531C27.3281 20.0573 27.2656 20.7031 27.2656 21.3906ZM46.0469 16.7812V30H41.5469V13.0938H45.7812L46.0469 16.7812ZM51.1406 12.9844L51.0625 17.1562C50.8438 17.125 50.5781 17.099 50.2656 17.0781C49.9635 17.0469 49.6875 17.0312 49.4375 17.0312C48.8021 17.0312 48.25 17.1146 47.7812 17.2812C47.3229 17.4375 46.9375 17.6719 46.625 17.9844C46.3229 18.2969 46.0938 18.6771 45.9375 19.125C45.7917 19.5729 45.7083 20.0833 45.6875 20.6562L44.7812 20.375C44.7812 19.2812 44.8906 18.276 45.1094 17.3594C45.3281 16.4323 45.6458 15.625 46.0625 14.9375C46.4896 14.25 47.0104 13.7188 47.625 13.3438C48.2396 12.9688 48.9427 12.7812 49.7344 12.7812C49.9844 12.7812 50.2396 12.8021 50.5 12.8438C50.7604 12.875 50.974 12.9219 51.1406 12.9844ZM71.5781 18.1094V27.125C71.224 27.5521 70.6771 28.0156 69.9375 28.5156C69.1979 29.0052 68.2448 29.4271 67.0781 29.7812C65.9115 30.1354 64.5 30.3125 62.8438 30.3125C61.375 30.3125 60.0365 30.0729 58.8281 29.5938C57.6198 29.1042 56.5781 28.3906 55.7031 27.4531C54.8385 26.5156 54.1719 25.3698 53.7031 24.0156C53.2344 22.651 53 21.0938 53 19.3438V17.9219C53 16.1719 53.224 14.6146 53.6719 13.25C54.1302 11.8854 54.7812 10.7344 55.625 9.79688C56.4688 8.85938 57.474 8.14583 58.6406 7.65625C59.8073 7.16667 61.1042 6.92188 62.5312 6.92188C64.5104 6.92188 66.1354 7.24479 67.4062 7.89062C68.6771 8.52604 69.6458 9.41146 70.3125 10.5469C70.9896 11.6719 71.4062 12.9635 71.5625 14.4219H67.0156C66.901 13.651 66.6823 12.9792 66.3594 12.4062C66.0365 11.8333 65.5729 11.3854 64.9688 11.0625C64.375 10.7396 63.6042 10.5781 62.6562 10.5781C61.875 10.5781 61.1771 10.7396 60.5625 11.0625C59.9583 11.375 59.4479 11.8385 59.0312 12.4531C58.6146 13.0677 58.2969 13.8281 58.0781 14.7344C57.8594 15.6406 57.75 16.6927 57.75 17.8906V19.3438C57.75 20.5312 57.8646 21.5833 58.0938 22.5C58.3229 23.4062 58.6615 24.1719 59.1094 24.7969C59.5677 25.4115 60.1302 25.875 60.7969 26.1875C61.4635 26.5 62.2396 26.6562 63.125 26.6562C63.8646 26.6562 64.4792 26.5938 64.9688 26.4688C65.4688 26.3438 65.8698 26.1927 66.1719 26.0156C66.4844 25.8281 66.724 25.651 66.8906 25.4844V21.4531H62.6094V18.1094H71.5781ZM74.3594 21.7188V21.3906C74.3594 20.151 74.5365 19.0104 74.8906 17.9688C75.2448 16.9167 75.7604 16.0052 76.4375 15.2344C77.1146 14.4635 77.9479 13.8646 78.9375 13.4375C79.9271 13 81.0625 12.7812 82.3438 12.7812C83.625 12.7812 84.7656 13 85.7656 13.4375C86.7656 13.8646 87.6042 14.4635 88.2812 15.2344C88.9688 16.0052 89.4896 16.9167 89.8438 17.9688C90.1979 19.0104 90.375 20.151 90.375 21.3906V21.7188C90.375 22.9479 90.1979 24.0885 89.8438 25.1406C89.4896 26.1823 88.9688 27.0938 88.2812 27.875C87.6042 28.6458 86.7708 29.2448 85.7812 29.6719C84.7917 30.099 83.6562 30.3125 82.375 30.3125C81.0938 30.3125 79.9531 30.099 78.9531 29.6719C77.9635 29.2448 77.125 28.6458 76.4375 27.875C75.7604 27.0938 75.2448 26.1823 74.8906 25.1406C74.5365 24.0885 74.3594 22.9479 74.3594 21.7188ZM78.8594 21.3906V21.7188C78.8594 22.4271 78.9219 23.0885 79.0469 23.7031C79.1719 24.3177 79.3698 24.8594 79.6406 25.3281C79.9219 25.7865 80.2865 26.1458 80.7344 26.4062C81.1823 26.6667 81.7292 26.7969 82.375 26.7969C83 26.7969 83.5365 26.6667 83.9844 26.4062C84.4323 26.1458 84.7917 25.7865 85.0625 25.3281C85.3333 24.8594 85.5312 24.3177 85.6562 23.7031C85.7917 23.0885 85.8594 22.4271 85.8594 21.7188V21.3906C85.8594 20.7031 85.7917 20.0573 85.6562 19.4531C85.5312 18.8385 85.3281 18.2969 85.0469 17.8281C84.776 17.349 84.4167 16.974 83.9688 16.7031C83.5208 16.4323 82.9792 16.2969 82.3438 16.2969C81.7083 16.2969 81.1667 16.4323 80.7188 16.7031C80.2812 16.974 79.9219 17.349 79.6406 17.8281C79.3698 18.2969 79.1719 18.8385 79.0469 19.4531C78.9219 20.0573 78.8594 20.7031 78.8594 21.3906ZM92.4219 21.7188V21.3906C92.4219 20.151 92.599 19.0104 92.9531 17.9688C93.3073 16.9167 93.8229 16.0052 94.5 15.2344C95.1771 14.4635 96.0104 13.8646 97 13.4375C97.9896 13 99.125 12.7812 100.406 12.7812C101.688 12.7812 102.828 13 103.828 13.4375C104.828 13.8646 105.667 14.4635 106.344 15.2344C107.031 16.0052 107.552 16.9167 107.906 17.9688C108.26 19.0104 108.438 20.151 108.438 21.3906V21.7188C108.438 22.9479 108.26 24.0885 107.906 25.1406C107.552 26.1823 107.031 27.0938 106.344 27.875C105.667 28.6458 104.833 29.2448 103.844 29.6719C102.854 30.099 101.719 30.3125 100.438 30.3125C99.1562 30.3125 98.0156 30.099 97.0156 29.6719C96.026 29.2448 95.1875 28.6458 94.5 27.875C93.8229 27.0938 93.3073 26.1823 92.9531 25.1406C92.599 24.0885 92.4219 22.9479 92.4219 21.7188ZM96.9219 21.3906V21.7188C96.9219 22.4271 96.9844 23.0885 97.1094 23.7031C97.2344 24.3177 97.4323 24.8594 97.7031 25.3281C97.9844 25.7865 98.349 26.1458 98.7969 26.4062C99.2448 26.6667 99.7917 26.7969 100.438 26.7969C101.062 26.7969 101.599 26.6667 102.047 26.4062C102.495 26.1458 102.854 25.7865 103.125 25.3281C103.396 24.8594 103.594 24.3177 103.719 23.7031C103.854 23.0885 103.922 22.4271 103.922 21.7188V21.3906C103.922 20.7031 103.854 20.0573 103.719 19.4531C103.594 18.8385 103.391 18.2969 103.109 17.8281C102.839 17.349 102.479 16.974 102.031 16.7031C101.583 16.4323 101.042 16.2969 100.406 16.2969C99.7708 16.2969 99.2292 16.4323 98.7812 16.7031C98.3438 16.974 97.9844 17.349 97.7031 17.8281C97.4323 18.2969 97.2344 18.8385 97.1094 19.4531C96.9844 20.0573 96.9219 20.7031 96.9219 21.3906ZM121.188 26.3125V6H125.719V30H121.641L121.188 26.3125ZM110.5 21.75V21.4219C110.5 20.1302 110.646 18.9583 110.938 17.9062C111.229 16.8438 111.656 15.9323 112.219 15.1719C112.781 14.4115 113.474 13.8229 114.297 13.4062C115.12 12.9896 116.057 12.7812 117.109 12.7812C118.099 12.7812 118.964 12.9896 119.703 13.4062C120.453 13.8229 121.089 14.4167 121.609 15.1875C122.141 15.9479 122.568 16.849 122.891 17.8906C123.214 18.9219 123.448 20.0521 123.594 21.2812V22C123.448 23.1771 123.214 24.2708 122.891 25.2812C122.568 26.2917 122.141 27.1771 121.609 27.9375C121.089 28.6875 120.453 29.2708 119.703 29.6875C118.953 30.1042 118.078 30.3125 117.078 30.3125C116.026 30.3125 115.089 30.099 114.266 29.6719C113.453 29.2448 112.766 28.6458 112.203 27.875C111.651 27.1042 111.229 26.1979 110.938 25.1562C110.646 24.1146 110.5 22.9792 110.5 21.75ZM115 21.4219V21.75C115 22.4479 115.052 23.099 115.156 23.7031C115.271 24.3073 115.453 24.8438 115.703 25.3125C115.964 25.7708 116.297 26.1302 116.703 26.3906C117.12 26.6406 117.625 26.7656 118.219 26.7656C118.99 26.7656 119.625 26.5938 120.125 26.25C120.625 25.8958 121.005 25.4115 121.266 24.7969C121.536 24.1823 121.693 23.474 121.734 22.6719V20.625C121.703 19.9688 121.609 19.3802 121.453 18.8594C121.307 18.3281 121.089 17.875 120.797 17.5C120.516 17.125 120.161 16.8333 119.734 16.625C119.318 16.4167 118.823 16.3125 118.25 16.3125C117.667 16.3125 117.167 16.4479 116.75 16.7188C116.333 16.9792 115.995 17.3385 115.734 17.7969C115.484 18.2552 115.297 18.7969 115.172 19.4219C115.057 20.0365 115 20.7031 115 21.4219Z" fill="black"/>
</svg>
