<svg width="25" height="24" viewBox="0 0 25 24" fill="none" xmlns="http://www.w3.org/2000/svg">
<path d="M4.74 12.25C4.34461 11.8572 4.03134 11.3897 3.81845 10.8746C3.60556 10.3596 3.49731 9.8073 3.5 9.24999C3.5 8.12282 3.94777 7.04181 4.7448 6.24478C5.54183 5.44775 6.62283 4.99999 7.75 4.99999C9.33 4.99999 10.71 5.85999 11.44 7.13999H12.56C12.9311 6.48905 13.4681 5.94808 14.1163 5.57216C14.7645 5.19625 15.5007 4.99883 16.25 4.99999C17.3772 4.99999 18.4582 5.44775 19.2552 6.24478C20.0522 7.04181 20.5 8.12282 20.5 9.24999C20.5 10.42 20 11.5 19.26 12.25L12 19.5L4.74 12.25ZM19.96 12.96C20.91 12 21.5 10.7 21.5 9.24999C21.5 7.8576 20.9469 6.52224 19.9623 5.53768C18.9777 4.55311 17.6424 3.99999 16.25 3.99999C14.5 3.99999 12.95 4.84999 12 6.16999C11.5151 5.49649 10.8766 4.94831 10.1375 4.57092C9.39835 4.19353 8.5799 3.99781 7.75 3.99999C6.35761 3.99999 5.02226 4.55311 4.03769 5.53768C3.05312 6.52224 2.5 7.8576 2.5 9.24999C2.5 10.7 3.09 12 4.04 12.96L12 20.92L19.96 12.96Z" fill="black"/>
</svg>
